  0
SECTION
  2
HEADER
  9
$LTSCALE
 40
24.00
  9
$LIMMIN
 10
-24.40
 20
-36.60
  9
$LIMMAX
 10
2464.40
 20
1305.40
  9
$EXTMIN
 10
-24.40
 20
-36.60
  9
$EXTMAX
 10
2464.40
 20
1305.40
  9
$TEXTSTYLE
  7
txt
  9
$CLAYER
  8
1
  9
$CECOLOR
 62
7
  9
$CELTYPE
  6
CONTINUOUS
  9
$OSMODE
 70
0
  0
ENDSEC
  0
SECTION
  2
TABLES
  0
TABLE
  2
STYLE
 70
1
  0
STYLE
  2
STANDARD
 70
0
 40
1.00
 41
1.00
 50
0.00
 71
0
 42
0.20
  3
txt
  4

  0
ENDTAB
  0
TABLE
  2
LTYPE
 70
1
  0
LTYPE
  2
HIDDEN
 70
64
  3
_ _ _ _ _ _ _ _ _ _ _ _ _ _ _ _ _ _ _ _ _ _
 72
65
 73
2
 40
0.50
 49
0.25
 49
-0.25
  0
ENDTAB
  0
ENDSEC
  0
SECTION
  2
ENTITIES
  0
LINE
  6
CONTINUOUS
  8
FRAME_Z15
 10
0.00
 20
0.00
 30
0.00
 11
2440.00
 21
0.00
 31
0.00
  0
LINE
  6
CONTINUOUS
  8
FRAME_Z15
 10
0.00
 20
1220.00
 30
0.00
 11
2440.00
 21
1220.00
 31
0.00
  0
LINE
  6
CONTINUOUS
  8
FRAME_Z15
 10
0.00
 20
0.00
 30
0.00
 11
0.00
 21
1220.00
 31
0.00
  0
LINE
  6
CONTINUOUS
  8
FRAME_Z15
 10
2440.00
 20
0.00
 30
0.00
 11
2440.00
 21
1220.00
 31
0.00
  0
POLYLINE
  8
OFFCUT_D0_T128.2_RK1_A0_W0_RI1_EM1
 70
0
 66
1
 40
0.00
 41
0.00
  0
VERTEX
  8
OFFCUT_D0_T128.2_RK1_A0_W0_RI1_EM1
 10
530.07
 20
0.00
 30
15.30
  0
VERTEX
  8
OFFCUT_D0_T128.2_RK1_A0_W0_RI1_EM1
 10
530.07
 20
1220.00
 30
15.30
  0
SEQEND
  8
OFFCUT_D0_T128.2_RK1_A0_W0_RI1_EM1
  0
POLYLINE
  8
CUTOUT_Z15_D0
 70
0
 66
1
 40
0.00
 41
0.00
  0
VERTEX
  8
CUTOUT_Z15_D0
 10
105.00
 20
1080.00
 30
15.00
  0
VERTEX
  8
CUTOUT_Z15_D0
 10
125.00
 20
1080.00
 30
15.00
  0
VERTEX
  8
CUTOUT_Z15_D0
 10
125.00
 20
1180.00
 30
15.00
  0
VERTEX
  8
CUTOUT_Z15_D0
 10
85.00
 20
1180.00
 30
15.00
  0
VERTEX
  8
CUTOUT_Z15_D0
 10
85.00
 20
1080.00
 30
15.00
  0
VERTEX
  8
CUTOUT_Z15_D0
 10
105.00
 20
1080.00
 30
15.00
  0
SEQEND
  8
CUTOUT_Z15_D0
  0
POLYLINE
  8
POCKET_RD0_Z10_D0
 70
0
 66
1
 40
0.00
 41
0.00
  0
VERTEX
  8
POCKET_RD0_Z10_D0
 10
47.50
 20
1085.00
 30
10.00
  0
VERTEX
  8
POCKET_RD0_Z10_D0
 10
70.00
 20
1085.00
 30
10.00
  0
VERTEX
  8
POCKET_RD0_Z10_D0
 10
70.00
 20
1180.00
 30
10.00
  0
VERTEX
  8
POCKET_RD0_Z10_D0
 10
25.00
 20
1180.00
 30
10.00
  0
VERTEX
  8
POCKET_RD0_Z10_D0
 10
25.00
 20
1085.00
 30
10.00
  0
VERTEX
  8
POCKET_RD0_Z10_D0
 10
47.50
 20
1085.00
 30
10.00
  0
SEQEND
  8
POCKET_RD0_Z10_D0
  0
POLYLINE
  8
CUTOUT_Z15_D0
 70
0
 66
1
 40
0.00
 41
0.00
  0
VERTEX
  8
CUTOUT_Z15_D0
 10
146.00
 20
740.00
 30
15.00
  0
VERTEX
  8
CUTOUT_Z15_D0
 10
169.00
 20
740.00
 30
15.00
  0
VERTEX
  8
CUTOUT_Z15_D0
 10
169.00
 20
867.00
 30
15.00
  0
VERTEX
  8
CUTOUT_Z15_D0
 10
123.00
 20
867.00
 30
15.00
  0
VERTEX
  8
CUTOUT_Z15_D0
 10
123.00
 20
740.00
 30
15.00
  0
VERTEX
  8
CUTOUT_Z15_D0
 10
146.00
 20
740.00
 30
15.00
  0
SEQEND
  8
CUTOUT_Z15_D0
  0
POLYLINE
  8
POCKET_RD0_Z10_D0
 70
0
 66
1
 40
0.00
 41
0.00
  0
VERTEX
  8
POCKET_RD0_Z10_D0
 10
66.00
 20
731.00
 30
10.00
  0
VERTEX
  8
POCKET_RD0_Z10_D0
 10
90.00
 20
731.00
 30
10.00
  0
VERTEX
  8
POCKET_RD0_Z10_D0
 10
90.00
 20
905.00
 30
10.00
  0
VERTEX
  8
POCKET_RD0_Z10_D0
 10
42.00
 20
905.00
 30
10.00
  0
VERTEX
  8
POCKET_RD0_Z10_D0
 10
42.00
 20
731.00
 30
10.00
  0
VERTEX
  8
POCKET_RD0_Z10_D0
 10
66.00
 20
731.00
 30
10.00
  0
SEQEND
  8
POCKET_RD0_Z10_D0
  0
CIRCLE
  8
ROUT_Z6_D9
 10
75.00
 20
990.00
 30
6.00
 40
40.00
  0
ARC
  8
ROUT_Z6_D21
 10
232.00
 20
1066.99
 30
6.00
 40
84.10
 50
115.34
 51
67.75
  0
ARC
  8
ROUT_Z6_D32
 10
429.57
 20
1117.01
 30
6.00
 40
57.68
 50
311.78
 51
136.11
  0
ARC
  8
ROUT_Z6_D26
 10
249.96
 20
1075.80
 30
6.00
 40
38.42
 50
123.06
 51
286.71
  0
POLYLINE
  8
POCKET_D0
 70
1
 66
1
  0
VERTEX
  8
POCKET_D0
 10
333.00
 20
871.00
 30
12.00
  0
VERTEX
  8
POCKET_D0
 10
299.00
 20
810.00
 30
12.00
 42
-0.704660
  0
VERTEX
  8
POCKET_D0
 10
223.00
 20
846.00
 30
12.00
  0
VERTEX
  8
POCKET_D0
 10
260.00
 20
909.00
 30
12.00
 42
-1.237930
  0
VERTEX
  8
POCKET_D0
 10
333.00
 20
871.00
 30
12.00
  0
SEQEND
  8
POCKET_D0
  0
POLYLINE
  8
ROUT_Z6_D24
 70
0
 66
1
 40
24.00
 41
24.00
  0
VERTEX
  8
ROUT_Z6_D24
 10
149.00
 20
956.00
 30
6.00
  0
VERTEX
  8
ROUT_Z6_D24
 10
212.00
 20
916.00
 30
6.00
  0
SEQEND
  8
ROUT_Z6_D24
  0
POLYLINE
  8
POCKET_D0
 70
1
 66
1
  0
VERTEX
  8
POCKET_D0
 10
443.00
 20
1024.00
 30
12.00
  0
VERTEX
  8
POCKET_D0
 10
409.00
 20
963.00
 30
12.00
 42
-0.704660
  0
VERTEX
  8
POCKET_D0
 10
333.00
 20
999.00
 30
12.00
  0
VERTEX
  8
POCKET_D0
 10
370.00
 20
1062.00
 30
12.00
 42
-1.237930
  0
VERTEX
  8
POCKET_D0
 10
443.00
 20
1024.00
 30
12.00
  0
SEQEND
  8
POCKET_D0
  0
CIRCLE
  8
VBORE_Z8_D8
 10
35.00
 20
278.85
 30
8.00
 40
4.00
  0
CIRCLE
  8
VBORE_Z8_D8
 10
55.00
 20
278.85
 30
8.00
 40
4.00
  0
CIRCLE
  8
VBORE_Z8_D8
 10
495.00
 20
738.85
 30
8.00
 40
4.00
  0
CIRCLE
  8
VBORE_Z8_D8
 10
495.00
 20
718.85
 30
8.00
 40
4.00
  0
POLYLINE
  8
CONTOUR_D0_T133_A2_W2
 70
0
 66
1
  0
VERTEX
  8
CONTOUR_D0_T133_A2_W2
 10
495.00
 20
508.85
 30
6.00
  0
VERTEX
  8
CONTOUR_D0_T133_A2_W2
 10
495.00
 20
278.85
 30
6.00
  0
VERTEX
  8
CONTOUR_D0_T133_A2_W2
 10
265.00
 20
278.85
 30
6.00
  0
SEQEND
  8
CONTOUR_D0_T133_A2_W2
  0
CIRCLE
  8
VBORE_Z8_D8
 10
315.00
 20
622.85
 30
8.00
 40
4.00
  0
CIRCLE
  8
VBORE_Z8_D8
 10
315.00
 20
642.85
 30
8.00
 40
4.00
  0
CIRCLE
  8
VBORE_Z8_D8
 10
315.00
 20
662.85
 30
8.00
 40
4.00
  0
CIRCLE
  8
VBORE_Z8_D8
 10
315.00
 20
682.85
 30
8.00
 40
4.00
  0
CIRCLE
  8
VBORE_Z8_D8
 10
150.00
 20
458.85
 30
8.00
 40
4.00
  0
CIRCLE
  8
VBORE_Z8_D8
 10
130.00
 20
458.85
 30
8.00
 40
4.00
  0
POLYLINE
  8
GROOVE_Z9_D12
 70
0
 66
1
 40
12.00
 41
12.00
  0
VERTEX
  8
GROOVE_Z9_D12
 10
125.00
 20
333.85
 30
9.00
  0
VERTEX
  8
GROOVE_Z9_D12
 10
245.00
 20
333.85
 30
9.00
  0
SEQEND
  8
GROOVE_Z9_D12
  0
POLYLINE
  8
GROOVE_Z9_D13
 70
0
 66
1
 40
13.00
 41
13.00
  0
VERTEX
  8
GROOVE_Z9_D13
 10
245.00
 20
383.85
 30
9.00
  0
VERTEX
  8
GROOVE_Z9_D13
 10
125.00
 20
383.85
 30
9.00
  0
SEQEND
  8
GROOVE_Z9_D13
  0
POLYLINE
  8
BORDER_D0_T128__N_RK1_F500_S3000_SA4000_A0_W0_RI1_EM1_ID0001
 70
1
 66
1
  0
VERTEX
  8
BORDER_D0_T128__N_RK1_F500_S3000_SA4000_A0_W0_RI1_EM1_ID0001
 10
15.00
 20
1205.00
 30
13.00
  0
VERTEX
  8
BORDER_D0_T128__N_RK1_F500_S3000_SA4000_A0_W0_RI1_EM1_ID0001
 10
515.00
 20
1205.00
 30
13.00
  0
VERTEX
  8
BORDER_D0_T128__N_RK1_F500_S3000_SA4000_A0_W0_RI1_EM1_ID0001
 10
515.00
 20
1105.00
 30
13.00
 42
-0.387499
  0
VERTEX
  8
BORDER_D0_T128__N_RK1_F500_S3000_SA4000_A0_W0_RI1_EM1_ID0001
 10
115.00
 20
705.00
 30
13.00
  0
VERTEX
  8
BORDER_D0_T128__N_RK1_F500_S3000_SA4000_A0_W0_RI1_EM1_ID0001
 10
15.00
 20
705.00
 30
13.00
  0
VERTEX
  8
BORDER_D0_T128__N_RK1_F500_S3000_SA4000_A0_W0_RI1_EM1_ID0001
 10
15.00
 20
1205.00
 30
13.00
  0
SEQEND
  8
BORDER_D0_T128__N_RK1_F500_S3000_SA4000_A0_W0_RI1_EM1_ID0001
  0
POLYLINE
  8
BORDER_D0_T128__N_RK1_F500_S3000_SA4000_A0_W0_RI1_EM1_ID0002
 70
1
 66
1
  0
VERTEX
  8
BORDER_D0_T128__N_RK1_F500_S3000_SA4000_A0_W0_RI1_EM1_ID0002
 10
515.00
 20
258.85
 30
13.00
  0
VERTEX
  8
BORDER_D0_T128__N_RK1_F500_S3000_SA4000_A0_W0_RI1_EM1_ID0002
 10
15.00
 20
258.85
 30
13.00
  0
VERTEX
  8
BORDER_D0_T128__N_RK1_F500_S3000_SA4000_A0_W0_RI1_EM1_ID0002
 10
15.00
 20
358.85
 30
13.00
 42
-0.387499
  0
VERTEX
  8
BORDER_D0_T128__N_RK1_F500_S3000_SA4000_A0_W0_RI1_EM1_ID0002
 10
415.00
 20
758.85
 30
13.00
  0
VERTEX
  8
BORDER_D0_T128__N_RK1_F500_S3000_SA4000_A0_W0_RI1_EM1_ID0002
 10
515.00
 20
758.85
 30
13.00
  0
VERTEX
  8
BORDER_D0_T128__N_RK1_F500_S3000_SA4000_A0_W0_RI1_EM1_ID0002
 10
515.00
 20
258.85
 30
13.00
  0
SEQEND
  8
BORDER_D0_T128__N_RK1_F500_S3000_SA4000_A0_W0_RI1_EM1_ID0002
  0
POLYLINE
  8
BORDER_D0_T128.1_RK1_F600_A0_W0_RI1_EM1_ID0001
 70
1
 66
1
  0
VERTEX
  8
BORDER_D0_T128.1_RK1_F600_A0_W0_RI1_EM1_ID0001
 10
15.00
 20
1205.00
 30
15.30
  0
VERTEX
  8
BORDER_D0_T128.1_RK1_F600_A0_W0_RI1_EM1_ID0001
 10
515.00
 20
1205.00
 30
15.30
  0
VERTEX
  8
BORDER_D0_T128.1_RK1_F600_A0_W0_RI1_EM1_ID0001
 10
515.00
 20
1105.00
 30
15.30
 42
-0.387499
  0
VERTEX
  8
BORDER_D0_T128.1_RK1_F600_A0_W0_RI1_EM1_ID0001
 10
115.00
 20
705.00
 30
15.30
  0
VERTEX
  8
BORDER_D0_T128.1_RK1_F600_A0_W0_RI1_EM1_ID0001
 10
15.00
 20
705.00
 30
15.30
  0
VERTEX
  8
BORDER_D0_T128.1_RK1_F600_A0_W0_RI1_EM1_ID0001
 10
15.00
 20
1205.00
 30
15.30
  0
SEQEND
  8
BORDER_D0_T128.1_RK1_F600_A0_W0_RI1_EM1_ID0001
  0
POLYLINE
  8
BORDER_D0_T128.1_RK1_F600_A0_W0_RI1_EM1_ID0002
 70
1
 66
1
  0
VERTEX
  8
BORDER_D0_T128.1_RK1_F600_A0_W0_RI1_EM1_ID0002
 10
515.00
 20
258.85
 30
15.30
  0
VERTEX
  8
BORDER_D0_T128.1_RK1_F600_A0_W0_RI1_EM1_ID0002
 10
15.00
 20
258.85
 30
15.30
  0
VERTEX
  8
BORDER_D0_T128.1_RK1_F600_A0_W0_RI1_EM1_ID0002
 10
15.00
 20
358.85
 30
15.30
 42
-0.387499
  0
VERTEX
  8
BORDER_D0_T128.1_RK1_F600_A0_W0_RI1_EM1_ID0002
 10
415.00
 20
758.85
 30
15.30
  0
VERTEX
  8
BORDER_D0_T128.1_RK1_F600_A0_W0_RI1_EM1_ID0002
 10
515.00
 20
758.85
 30
15.30
  0
VERTEX
  8
BORDER_D0_T128.1_RK1_F600_A0_W0_RI1_EM1_ID0002
 10
515.00
 20
258.85
 30
15.30
  0
SEQEND
  8
BORDER_D0_T128.1_RK1_F600_A0_W0_RI1_EM1_ID0002
  0
ENDSEC
  0
EOF
